<svg xmlns="http://www.w3.org/2000/svg" width="197" height="192.075" viewBox="0 0 197 192.075">
  <g id="after-effects-cc" transform="translate(0 -130.746)">
    <path id="Path_38" data-name="Path 38" d="M24.8,155.549H205.387V331.208H24.8Z" transform="translate(-16.595 -16.595)" fill="#d1d1d1"/>
    <path id="Path_39" data-name="Path 39" d="M8.208,138.954H188.792V314.613H8.208ZM0,322.821H197V130.746H0Zm139.377-99.485c4.186,0,5.664,0,6.074-.164,0-.574.164-.985.164-1.4,0-4.433-2.134-12.641-10.671-12.641-7.88,0-11.245,6.895-12.066,14.2h16.5Zm-16.663,11.245c.164,11.081,5.417,18.551,17.894,18.551a32.125,32.125,0,0,0,13.38-2.544c.575-.246.985-.164.985.574v10.26a1.738,1.738,0,0,1-.821,1.642c-4.35,2.134-9.768,3.119-16.5,3.119-21.67,0-29.8-16.006-29.8-33.818,0-19.372,10.014-35.214,27.662-35.214,17.894,0,24.133,15.021,24.133,27.252a41.509,41.509,0,0,1-.657,8.7,1.221,1.221,0,0,1-1.067,1.067,118.832,118.832,0,0,1-13.708.574H122.715Zm-44-8.372c-2.3-9.111-7.88-28.975-9.932-38.579h-.164c-1.724,9.6-6.238,25.856-9.6,38.579Zm-23.066,13.3L49.168,264.05c-.164.656-.41.9-1.231.9H35.87c-.821,0-.985-.246-.821-1.231l23.312-81.509a25.16,25.16,0,0,0,.821-6.731c0-.574.246-.821.657-.821H77.076c.575,0,.821.164.985.821l26.1,88.4c.164.656,0,1.067-.657,1.067H89.963a1.111,1.111,0,0,1-1.231-.82L82,239.507H55.652Z" fill="#0f0e0f"/>
  </g>
</svg>
