<svg xmlns="http://www.w3.org/2000/svg" viewBox="0 0 394.58 144.52"><defs><style>.cls-1{fill:#9a1c51;}</style></defs><g id="Layer_1" data-name="Layer 1"><path class="cls-1" d="M233.31,81.78v1.67q0,.81-.69.81h-9.11A8.11,8.11,0,0,1,217,81.49a11.25,11.25,0,0,1-2.37-7.57V57.47A11.28,11.28,0,0,1,217,49.89a8.1,8.1,0,0,1,6.49-2.76h9.11c.46,0,.69.26.69.8v1.75q0,.72-.69.72h-8.86a5.32,5.32,0,0,0-4.43,1.9,8.29,8.29,0,0,0-1.52,5.31V73.77a8.32,8.32,0,0,0,1.52,5.32A5.35,5.35,0,0,0,223.76,81h8.86C233.08,81,233.31,81.25,233.31,81.78Z" transform="translate(-20.03 -25.11)"/><path class="cls-1" d="M252.49,84.26h-4.05A8.11,8.11,0,0,1,242,81.49a11.25,11.25,0,0,1-2.37-7.57V57.47A11.28,11.28,0,0,1,242,49.89a8.1,8.1,0,0,1,6.49-2.76h13.41c.42,0,.64.29.64.87V83.38c0,.58-.22.88-.64.88H260c-.47,0-.7-.3-.7-.88V80.47h-.25C258,83,255.78,84.26,252.49,84.26Zm6.83-10.41V51.06q0-.66-.63-.66h-10a5.32,5.32,0,0,0-4.43,1.9,8.29,8.29,0,0,0-1.52,5.31V73.77a8.32,8.32,0,0,0,1.52,5.32A5.35,5.35,0,0,0,248.69,81h4.11a6.22,6.22,0,0,0,4.78-1.86A7.4,7.4,0,0,0,259.32,73.85Z" transform="translate(-20.03 -25.11)"/><path class="cls-1" d="M284.32,84.26h-4.24a7.94,7.94,0,0,1-6.39-2.77,11.3,11.3,0,0,1-2.35-7.57V57.47a11.33,11.33,0,0,1,2.35-7.58,7.94,7.94,0,0,1,6.39-2.76h4.24c3.24,0,5.46,1.26,6.64,3.78h.25V34c0-.58.21-.87.64-.87h1.83c.47,0,.7.29.7.87V83.38c0,.58-.23.88-.7.88h-1.83c-.43,0-.64-.3-.64-.88V80.47H291C289.78,83,287.56,84.26,284.32,84.26Zm6.89-10.41V57.54a7.44,7.44,0,0,0-1.74-5.28,6.21,6.21,0,0,0-4.77-1.86h-4.24A5.32,5.32,0,0,0,276,52.3a8.23,8.23,0,0,0-1.52,5.31V73.77A8.26,8.26,0,0,0,276,79.09,5.35,5.35,0,0,0,280.46,81h4.24a6.21,6.21,0,0,0,4.77-1.86A7.4,7.4,0,0,0,291.21,73.85Z" transform="translate(-20.03 -25.11)"/><path class="cls-1" d="M325.32,84.26H312.1a8.11,8.11,0,0,1-6.49-2.77,11.25,11.25,0,0,1-2.37-7.57V57.47a11.28,11.28,0,0,1,2.37-7.58,8.1,8.1,0,0,1,6.49-2.76h5.44a8.22,8.22,0,0,1,6.52,2.76,11.19,11.19,0,0,1,2.4,7.58v9.24c0,.58-.25.87-.76.87H307q-.57,0-.57.66v5.61a8.11,8.11,0,0,0,1.52,5.27A5.38,5.38,0,0,0,312.35,81h13c.47,0,.7.27.7.8v1.67C326,84,325.79,84.26,325.32,84.26ZM307,64.67h15.76c.38,0,.57-.22.57-.65V57.54a8.16,8.16,0,0,0-1.52-5.28,5.38,5.38,0,0,0-4.43-1.86h-5a5.38,5.38,0,0,0-4.43,1.86,8.16,8.16,0,0,0-1.52,5.28V64C306.4,64.45,306.59,64.67,307,64.67Z" transform="translate(-20.03 -25.11)"/><path class="cls-1" d="M337.47,84.26h-1.83c-.43,0-.64-.3-.64-.88V48c0-.58.21-.87.64-.87h1.83c.47,0,.7.29.7.87v2.91h.25c1.18-2.52,3.38-3.78,6.58-3.78h4.18a7.94,7.94,0,0,1,6.39,2.76,11.38,11.38,0,0,1,2.34,7.58V83.38c0,.58-.21.88-.63.88h-1.84c-.46,0-.69-.3-.69-.88V57.61a8.29,8.29,0,0,0-1.52-5.31,5.32,5.32,0,0,0-4.43-1.9h-4.11a6.22,6.22,0,0,0-4.78,1.86,7.44,7.44,0,0,0-1.74,5.28V83.38C338.17,84,337.94,84.26,337.47,84.26Z" transform="translate(-20.03 -25.11)"/><path class="cls-1" d="M385.12,81.78v1.67c0,.54-.23.81-.7.81h-9.11a8.1,8.1,0,0,1-6.48-2.77,11.21,11.21,0,0,1-2.38-7.57V57.47a11.23,11.23,0,0,1,2.38-7.58,8.09,8.09,0,0,1,6.48-2.76h9.11c.47,0,.7.26.7.8v1.75a.63.63,0,0,1-.7.72h-8.86a5.3,5.3,0,0,0-4.42,1.9,8.23,8.23,0,0,0-1.52,5.31V73.77a8.26,8.26,0,0,0,1.52,5.32A5.33,5.33,0,0,0,375.56,81h8.86C384.89,81,385.12,81.25,385.12,81.78Z" transform="translate(-20.03 -25.11)"/><path class="cls-1" d="M413.47,84.26H400.24a8.1,8.1,0,0,1-6.48-2.77,11.25,11.25,0,0,1-2.37-7.57V57.47a11.28,11.28,0,0,1,2.37-7.58,8.09,8.09,0,0,1,6.48-2.76h5.45a8.18,8.18,0,0,1,6.51,2.76,11.14,11.14,0,0,1,2.41,7.58v9.24c0,.58-.25.87-.76.87H395.12q-.57,0-.57.66v5.61a8.11,8.11,0,0,0,1.52,5.27A5.38,5.38,0,0,0,400.5,81h13c.46,0,.7.27.7.8v1.67C414.17,84,413.93,84.26,413.47,84.26ZM395.12,64.67h15.76c.38,0,.56-.22.56-.65V57.54a8.16,8.16,0,0,0-1.51-5.28,5.4,5.4,0,0,0-4.43-1.86h-5a5.38,5.38,0,0,0-4.43,1.86,8.16,8.16,0,0,0-1.52,5.28V64C394.55,64.45,394.74,64.67,395.12,64.67Z" transform="translate(-20.03 -25.11)"/><path class="cls-1" d="M226.92,154.26h-7.21c-.8,0-1.31-.51-1.52-1.53l-6.33-34.07c-.17-1,.15-1.53.95-1.53h6.08c.92,0,1.43.51,1.51,1.53l2.85,24.89h.51l4.49-24.89c.13-1,.61-1.53,1.46-1.53h5.56q1.33,0,1.59,1.53l4.36,24.89h.51l2.91-24.89c.13-1,.63-1.53,1.52-1.53h6.07c.85,0,1.16.51,1,1.53l-6.33,34.07c-.16,1-.67,1.53-1.51,1.53h-7.22c-.84,0-1.35-.51-1.52-1.53l-3.86-24.61h-.5l-3.8,24.61C228.31,153.75,227.81,154.26,226.92,154.26Z" transform="translate(-20.03 -25.11)"/><path class="cls-1" d="M269.38,154.26h-1.52q-5,0-7.72-3.06t-2.72-8.81V129c0-3.83.91-6.77,2.72-8.8s4.39-3.06,7.72-3.06h14.62c.93,0,1.39.51,1.39,1.53v34.07c0,1-.46,1.53-1.39,1.53h-5.31c-.89,0-1.33-.51-1.33-1.53v-2.41h-.26a5.22,5.22,0,0,1-2.46,3A7.56,7.56,0,0,1,269.38,154.26Zm6.46-13.55V125.94c0-.54-.26-.8-.76-.8h-5.95a3.53,3.53,0,0,0-2.85,1,5.18,5.18,0,0,0-.82,3.31V142a5.16,5.16,0,0,0,.82,3.31,3.54,3.54,0,0,0,2.85,1h2.34Q275.83,146.25,275.84,140.71Z" transform="translate(-20.03 -25.11)"/><path class="cls-1" d="M291.53,125.14H289a1.4,1.4,0,0,1-1-.3,1.69,1.69,0,0,1-.29-1.16v-5c0-1,.44-1.53,1.33-1.53h2.53c.46,0,.7-.27.7-.8v-6.92c0-1,.46-1.53,1.39-1.53h5.31c.89,0,1.33.51,1.33,1.53v6.92c0,.53.26.8.76.8H306c.88,0,1.33.51,1.33,1.53v5a1.74,1.74,0,0,1-.29,1.13,1.33,1.33,0,0,1-1,.33H301c-.5,0-.76.26-.76.8V142a4.76,4.76,0,0,0,.89,3.23,3.73,3.73,0,0,0,2.91,1h2.53c.89,0,1.33.51,1.33,1.53v5a1.81,1.81,0,0,1-.28,1.13,1.35,1.35,0,0,1-1.05.33h-3.86A9.88,9.88,0,0,1,295,151.2c-1.84-2-2.75-4.95-2.75-8.74V125.94C292.23,125.4,292,125.14,291.53,125.14Z" transform="translate(-20.03 -25.11)"/><path class="cls-1" d="M325.39,154.26h-12q-1.26,0-1.26-1.53v-4.66a1.89,1.89,0,0,1,.25-1.13,1.23,1.23,0,0,1,1-.33h10.57c2.07,0,3.1-.73,3.1-2.18v-.37c0-1.16-.86-2.28-2.59-3.35l-6.27-4a14.62,14.62,0,0,1-4.74-4.08,9.52,9.52,0,0,1-1.52-5.6q0-5.1,2.34-7.5t7.34-2.4h10.57q1.26,0,1.26,1.53v4.73a1.91,1.91,0,0,1-.25,1.13,1.23,1.23,0,0,1-1,.32h-8.8c-2.07,0-3.1.61-3.1,1.82V127c0,1.07.91,2.16,2.72,3.27l6.39,4.37a13.92,13.92,0,0,1,4.62,4.19,10.56,10.56,0,0,1,1.33,5.64Q335.32,154.25,325.39,154.26Z" transform="translate(-20.03 -25.11)"/><path class="cls-1" d="M356.33,154.26H350.7q-5,0-7.72-3.06c-1.82-2-2.72-5-2.72-8.81V129c0-3.83.9-6.77,2.72-8.8s4.38-3.06,7.72-3.06h5.63a9.77,9.77,0,0,1,7.69,3.09c1.83,2.06,2.75,5,2.75,8.77v13.4c0,3.78-.92,6.71-2.75,8.77A9.78,9.78,0,0,1,356.33,154.26Zm-4.43-7.94h3.23a3.7,3.7,0,0,0,2.88-.95,4.94,4.94,0,0,0,.85-3.27V129.29A5,5,0,0,0,358,126a3.74,3.74,0,0,0-2.88-1H351.9a3.63,3.63,0,0,0-2.85,1,5,5,0,0,0-.82,3.28V142.1a5,5,0,0,0,.82,3.27A3.6,3.6,0,0,0,351.9,146.32Z" transform="translate(-20.03 -25.11)"/><path class="cls-1" d="M379.8,154.26h-5.37c-.89,0-1.33-.51-1.33-1.53V118.66c0-1,.44-1.53,1.33-1.53h5.37c.89,0,1.33.51,1.33,1.53v2.4h.26q1.38-3.93,6.2-3.93h2q9.93,0,9.94,11.86v23.74c0,1-.47,1.53-1.4,1.53h-5.31c-.89,0-1.33-.51-1.33-1.53v-23.3a5,5,0,0,0-.85-3.31,3.63,3.63,0,0,0-2.88-1H385.5q-4.37,0-4.37,5.53v22.06C381.13,153.75,380.69,154.26,379.8,154.26Z" transform="translate(-20.03 -25.11)"/><path class="cls-1" d="M413.22,143.77v9c0,1-.41,1.53-1.21,1.53h-5.63q-1.26,0-1.26-1.53v-8.88c0-1,.42-1.46,1.26-1.46H412C412.81,142.39,413.22,142.85,413.22,143.77Z" transform="translate(-20.03 -25.11)"/></g><g id="Layer_2" data-name="Layer 2"><path class="cls-1" d="M157.68,169.63,48.45,127.28c2.38-3.51,4.57-6.94,6.94-10.23,7.19-10,15.56-18.74,25.81-25.6a63.66,63.66,0,0,1,23.15-10,49.85,49.85,0,0,1,25.92,2.07c9.53,3.22,17.77,8.68,25.57,14.86,5.22,4.14,10.3,8.45,15.48,12.62a2.06,2.06,0,0,1,.84,2.49q-5.76,22.14-11.42,44.3C159.74,161.66,158.74,165.55,157.68,169.63Z" transform="translate(-20.03 -25.11)"/><path class="cls-1" d="M172.76,110.27c-2.26-1.89-4.52-3.76-6.75-5.66-6.89-5.85-13.68-11.84-21.58-16.34-7-4-14.27-7.23-22.27-8.56a51,51,0,0,0-28.63,3.58C82.33,88,73,95.34,64.66,104c-3,3.11-5.79,6.41-8.84,9.5,1.57-2.07,3.09-4.17,4.71-6.19C70.41,95,81.61,84.18,95.75,76.81c10.45-5.45,21.52-8.2,33.41-7.29,10.54.82,20.14,4.42,29.06,9.8,6.31,3.81,12.33,8.12,18.44,12.25a1.72,1.72,0,0,1,.7,1.4C176,98.63,174.5,104.26,173,109.9,173,110,172.92,110.06,172.76,110.27Z" transform="translate(-20.03 -25.11)"/><path class="cls-1" d="M77.85,44.16c-.8,2.32-1.57,4.65-2.42,7C70.92,63.42,64.8,74.94,58.54,86.41q-9.85,18.07-19.63,36.2c-.12.22-.25.44-.46.79L20,116.26,77.52,44Z" transform="translate(-20.03 -25.11)"/><path class="cls-1" d="M88.4,78.75c2.39-1.59,4.72-3.27,7.17-4.76a80.76,80.76,0,0,1,39.51-12.06c6.43-.23,12.73,1,18.93,2.69,9.67,2.56,18.77,6.54,27.86,11-1.22,4.76-2.43,9.48-3.7,14.41L176.56,89c-9-6.24-18.12-12.27-28.26-16.56a58.12,58.12,0,0,0-25.6-5c-9.75.47-18.79,3.52-27.39,8-2.24,1.17-4.43,2.42-6.64,3.63Z" transform="translate(-20.03 -25.11)"/><path class="cls-1" d="M95.55,25.67c-1,3.58-1.71,7-2.74,10.31-3.7,11.84-9.72,22.52-16.52,32.79-7.61,11.5-15.5,22.81-23,34.4-4.17,6.51-7.71,13.42-11.49,20.17-.48.87-.86,1.41-2,.26,4.38-8.26,8.67-16.67,13.26-24.9,6.79-12.17,14.09-24.07,19.57-36.91,2.81-6.58,5-13.42,7.48-20.13a10.55,10.55,0,0,1,1.49-2.84c3.39-4.36,6.9-8.63,10.28-13C93.09,24.3,94.08,25.7,95.55,25.67Z" transform="translate(-20.03 -25.11)"/><path class="cls-1" d="M97.12,26.25l11.19,3.23c-2.17,4.51-4.06,8.92-6.35,13.1-5.23,9.51-12.08,17.87-19.1,26.07a429.37,429.37,0,0,0-33.1,44,4.37,4.37,0,0,1-1.31,1.37c.64-1.17,1.26-2.35,1.91-3.51,6.32-11.22,13.87-21.63,21.16-32.21,6-8.76,11.89-17.63,16.66-27.17a101.66,101.66,0,0,0,8.66-24.09A8,8,0,0,1,97.12,26.25Z" transform="translate(-20.03 -25.11)"/><path class="cls-1" d="M109.59,29.82l10.07,2.9c-2.13,3.13-3.83,6.24-6.11,8.85-5.22,6-10.57,11.88-16.14,17.53-9.35,9.49-19.08,18.6-27.67,28.82-1.34,1.6-2.7,3.19-4,4.79l-.32-.25c1.59-2.11,3.11-4.28,4.79-6.31,6.57-8,13.25-15.85,19.78-23.84,8-9.71,15-20,19.31-31.91A4.75,4.75,0,0,1,109.59,29.82Z" transform="translate(-20.03 -25.11)"/><path class="cls-1" d="M182.28,74.06c-19.09-9.38-38.46-16.25-60-12.49l0-.58c3.57-.65,7.13-1.46,10.73-1.91,13.94-1.73,27.43.79,40.77,4.49,3.46,1,6.9,2,10.47,3.09C183.55,69.16,183,71.48,182.28,74.06Z" transform="translate(-20.03 -25.11)"/><path class="cls-1" d="M83.28,75.08l4-4c9.51-9.31,19.4-18.27,27.55-28.87,2-2.61,3.74-5.44,5.52-8.22a1.23,1.23,0,0,1,1.62-.67c2.51.75,5,1.47,7.85,2.29-1.81,1.9-3.48,3.71-5.21,5.45-7.1,7.12-15.28,12.92-23.09,19.19-6,4.8-11.72,9.93-17.57,14.91-.11.09-.25.15-.37.23Z" transform="translate(-20.03 -25.11)"/><path class="cls-1" d="M132.28,57.33c18-4.11,35.87-1.33,53.9,1.48-.29,1.14-.54,2.17-.81,3.2s-.51,2-.8,3.11C167.48,59.8,150.33,55.51,132.28,57.33Z" transform="translate(-20.03 -25.11)"/><path class="cls-1" d="M139,38c-13.32,10.27-27.89,17.82-41.1,27.41l-.24-.3,2.44-1.91c7.38-5.89,14.84-11.67,22.09-17.71a110.75,110.75,0,0,0,8.5-8.56,1.55,1.55,0,0,1,1.82-.58C134.56,37,136.62,37.41,139,38Z" transform="translate(-20.03 -25.11)"/><path class="cls-1" d="M146.8,40.65l-32,15.74-.16-.23c1.89-1.25,3.79-2.48,5.68-3.74q10-6.69,20.08-13.37a1.79,1.79,0,0,1,1.24-.27c1.7.41,3.38.91,5.06,1.38Z" transform="translate(-20.03 -25.11)"/><path class="cls-1" d="M157.29,53.5l30.44-.77a29.89,29.89,0,0,1-1,3.67c-.11.28-1,.45-1.43.39-3.84-.48-7.66-1.09-11.5-1.54C168.12,54.59,162.4,54,157.29,53.5Z" transform="translate(-20.03 -25.11)"/><path class="cls-1" d="M124,53.4c4.93-2.35,9.78-4.63,14.59-7,3.06-1.49,6.11-3,9.07-4.66a3.82,3.82,0,0,1,3.49-.39,17.38,17.38,0,0,1,3.17,1.26Z" transform="translate(-20.03 -25.11)"/><path class="cls-1" d="M150.93,51.18c3.81-.48,7.63-1,11.44-1.42,3.58-.41,7.16-.83,10.75-1.15a10.18,10.18,0,0,1,3.35.23,59.45,59.45,0,0,1,7.31,2.4H151Z" transform="translate(-20.03 -25.11)"/><path class="cls-1" d="M170.33,47.44,146.9,50.06l-.08-.29c1.57-.41,3.13-.86,4.71-1.22,4.21-.95,8.4-2.1,12.66-2.68,2-.28,4.17.57,6.26.9Z" transform="translate(-20.03 -25.11)"/><path class="cls-1" d="M161.83,44.59l-23.9,5.73-.08-.24L145,47.53c3.21-1.15,6.5-2.11,9.58-3.52C157.08,42.85,159.19,43.67,161.83,44.59Z" transform="translate(-20.03 -25.11)"/></g></svg>