<svg id="Capa_1" data-name="Capa 1" xmlns="http://www.w3.org/2000/svg" viewBox="0 0 512 390"><defs><style>.cls-1{fill:#ff293b;}</style></defs><path class="cls-1" d="M467,61H45a44.44,44.44,0,0,0-19.28,4.51L255,294.79l51.39-49.39h0L486.29,65.51A44.62,44.62,0,0,0,467,61Z" transform="translate(0 -61)"/><path class="cls-1" d="M507.5,86.73,338.21,256,507.49,425.28A44.44,44.44,0,0,0,512,406V106A44.53,44.53,0,0,0,507.5,86.73Z" transform="translate(0 -61)"/><path class="cls-1" d="M4.51,86.72A44.44,44.44,0,0,0,0,106V406a44.4,44.4,0,0,0,4.51,19.27L173.79,256Z" transform="translate(0 -61)"/><path class="cls-1" d="M317,277.21l-51.39,49.4a15,15,0,0,1-21.21,0L195,277.21,25.71,446.49A44.48,44.48,0,0,0,45,451H467a44.44,44.44,0,0,0,19.28-4.51Z" transform="translate(0 -61)"/></svg>