<svg xmlns="http://www.w3.org/2000/svg" width="161.055" height="184.219" viewBox="0 0 161.055 184.219">
  <path id="html-5" d="M27.312,6.1,39.268,159.056a5.657,5.657,0,0,0,3.93,4.952l62.913,19.947a5.659,5.659,0,0,0,3.42,0l62.913-19.947a5.657,5.657,0,0,0,3.93-4.952L188.332,6.1a5.657,5.657,0,0,0-5.64-6.1H32.953A5.658,5.658,0,0,0,27.312,6.1ZM157.671,53.556H79.751L82.1,75.241h73.874l-4.833,61.821L107.822,150.8,64.5,137.062l-2.525-32.3H84.715v15.843l23.715,6.365L132,120.606l1.829-25.248H61.241L56.421,33.7h102.8Z" transform="translate(-27.295)" fill="#d1d1d1"/>
</svg>
