<svg id="javascript" xmlns="http://www.w3.org/2000/svg" width="183.803" height="183.803" viewBox="0 0 183.803 183.803">
  <path id="Path_22" data-name="Path 22" d="M0,0H183.8V183.8H0Z" fill="#d1d1d1"/>
  <path id="Path_23" data-name="Path 23" d="M67.312,186.356l14.065-8.512c2.714,4.811,5.182,8.882,11.1,8.882,5.676,0,9.255-2.22,9.255-10.856V117.141h17.272v58.973c0,17.89-10.487,26.033-25.787,26.033-13.818,0-21.838-7.156-25.91-15.793m61.079-1.85,14.064-8.143c3.7,6.046,8.514,10.488,17.027,10.488,7.158,0,11.721-3.578,11.721-8.514,0-5.922-4.688-8.02-12.585-11.473l-4.317-1.852c-12.462-5.3-20.728-11.967-20.728-26.032,0-12.955,9.87-22.826,25.293-22.826,10.981,0,18.877,3.825,24.552,13.819l-13.449,8.637c-2.962-5.305-6.168-7.4-11.1-7.4-5.059,0-8.267,3.208-8.267,7.4,0,5.182,3.208,7.28,10.61,10.488l4.318,1.85c14.683,6.293,22.949,12.708,22.949,27.142,0,15.547-12.214,24.059-28.624,24.059-16.039,0-26.4-7.649-31.461-17.644" transform="translate(-18.983 -32.758)" fill="#0f0e0f"/>
</svg>
