<svg id="Capa_1" data-name="Capa 1" xmlns="http://www.w3.org/2000/svg" viewBox="0 0 256.13 490.79"><defs><style>.cls-1{fill:#f44336;}.cls-2{fill:#ff2839;}</style></defs><path class="cls-1" d="M362.67,490.79a10.68,10.68,0,0,1-7.55-3.12L120.45,253a10.68,10.68,0,0,1,0-15.09L355.12,3.26a10.66,10.66,0,1,1,15.34,14.82c-.08.09-.17.17-.26.26L143.09,245.45,370.22,472.57a10.67,10.67,0,0,1-7.55,18.22Z" transform="translate(-117.33 0)"/><path class="cls-2" d="M362.67,490.79a10.68,10.68,0,0,1-7.55-3.12L120.45,253a10.68,10.68,0,0,1,0-15.09L355.12,3.26a10.66,10.66,0,1,1,15.34,14.82c-.08.09-.17.17-.26.26L143.09,245.45,370.22,472.57a10.67,10.67,0,0,1-7.55,18.22Z" transform="translate(-117.33 0)"/></svg>