<svg id="Bold" xmlns="http://www.w3.org/2000/svg" viewBox="0 0 512 512"><defs><style>.cls-1{fill:#ff293b;}</style></defs><path class="cls-1" d="M511.87,512v0H512V324.2c0-91.86-19.78-162.62-127.17-162.62-51.62,0-86.27,28.33-100.41,55.19h-1.5V170.15H181.1V512h106V342.72c0-44.57,8.44-87.66,63.63-87.66,54.38,0,55.19,50.86,55.19,90.52V512Z"/><path class="cls-1" d="M8.45,170.18H114.6V512H8.45Z"/><path class="cls-1" d="M61.48,0A61.5,61.5,0,0,0,0,61.48c0,33.94,27.54,62.06,61.48,62.06S123,95.42,123,61.48A61.54,61.54,0,0,0,61.48,0Z"/></svg>