<svg id="Capa_1" data-name="Capa 1" xmlns="http://www.w3.org/2000/svg" viewBox="0 0 512 459.15"><defs><style>.cls-1{fill:#0f0e0f;}.cls-2{fill:#ff2839;}</style></defs><path class="cls-1" d="M128.64,362.74l-.91-.06a85.67,85.67,0,0,1-20.53-3.79l-45.63,79a15,15,0,0,0,5.66,20.58l44.91,25.19a15,15,0,0,0,20.33-5.59l66.61-115.33Z" transform="translate(0 -26.42)"/><path class="cls-1" d="M382,28.66l-135.53,83V350.57l135.7,80.61a15,15,0,0,0,22.67-12.89V41.45A15,15,0,0,0,382,28.66Z" transform="translate(0 -26.42)"/><path class="cls-1" d="M48.53,280V179.28a80.49,80.49,0,0,1,1.78-16.83H28.5A28.5,28.5,0,0,0,0,190.94v77.44a28.5,28.5,0,0,0,28.5,28.49H50.3A81.31,81.31,0,0,1,48.53,280Z" transform="translate(0 -26.42)"/><path class="cls-1" d="M216.45,332.74h-86.9c-28.17-1.71-51-24.54-51-52.7V179.28c0-28.16,22.84-51,51-49.28h86.9Z" transform="translate(0 -26.42)"/><path class="cls-2" d="M470.72,352.29a15,15,0,0,1-10.61-4.39l-30.27-30.26a15,15,0,1,1,21.22-21.22l30.27,30.26a15,15,0,0,1-10.61,25.61Z" transform="translate(0 -26.42)"/><path class="cls-2" d="M440.45,172.29a15,15,0,0,1-10.61-25.61l30.27-30.25a15,15,0,1,1,21.22,21.21L451.06,167.9a15,15,0,0,1-10.61,4.39Z" transform="translate(0 -26.42)"/><path class="cls-2" d="M497,247.16h-42.8a15,15,0,1,1,0-30H497a15,15,0,1,1,0,30Z" transform="translate(0 -26.42)"/></svg>