<?xml version="1.0" encoding="utf-8"?>
<!-- Generator: Adobe Illustrator 24.1.2, SVG Export Plug-In . SVG Version: 6.00 Build 0)  -->
<svg version="1.1" id="Layer_1" xmlns="http://www.w3.org/2000/svg" xmlns:xlink="http://www.w3.org/1999/xlink" x="0px" y="0px"
	 viewBox="0 0 613.06 727.66" style="enable-background:new 0 0 613.06 727.66;" xml:space="preserve">
<style type="text/css">
	.st0{fill:#FF2839;}
</style>
<g>
	<path class="st0" d="M43.52,57.96c30.97,0,61.94,0,93.21,0c0,204.14,0,407.87,0,612c-31.27,0-62.24,0-93.21,0
		C43.52,465.96,43.52,261.96,43.52,57.96z"/>
	<path class="st0" d="M261.16,669.81c-31.12,0-61.91,0-93.09,0c0-203.81,0-407.48,0-611.5c30.93,0,61.83,0,93.09,0
		C261.16,261.94,261.16,465.62,261.16,669.81z"/>
	<path class="st0" d="M478.96,669.74c-10.43,0-20.54,0-30.96,0c0-203.9,0-407.57,0-611.51c10.35,0,20.45,0,30.96,0
		C478.96,261.9,478.96,465.57,478.96,669.74z"/>
	<path class="st0" d="M510.34,58.14c10.4,0,20.36,0,30.67,0c0,203.83,0,407.49,0,611.49c-10.17,0-20.25,0-30.67,0
		C510.34,465.96,510.34,262.29,510.34,58.14z"/>
	<path class="st0" d="M323.28,57.96c0,204.32,0,407.91,0,611.75c-10.17,0-20.11,0-30.49,0c0-203.67,0-407.37,0-611.75
		c5.01,0,10.11,0,15.22,0C312.98,57.96,317.95,57.96,323.28,57.96z"/>
	<path class="st0" d="M353.28,87.48c0-10.09,0-19.52,0-29.68c3.6,0,7.02,0,10.45,0c10.16,0,20.34,0.28,30.48-0.08
		c9.71-0.34,16.61,3.92,20.36,12.39c8.38,18.93,8.33,38.2-0.21,57.05c-3.71,8.19-10.44,12.65-20.03,12.03
		c-5.81-0.38-11.66-0.12-17.49-0.07c-6.34,0.05-8.6,1.95-9.89,8.17c-1.84,8.89,2.29,14.13,11.18,14.16
		c5.33,0.02,10.67,0.18,15.99-0.03c9.15-0.36,16.1,3.48,19.9,11.56c9.09,19.32,8.95,39,0.2,58.38c-3.57,7.89-10.25,11.9-19.25,11.8
		c-13.8-0.15-27.59-0.04-41.69-0.04c0-9.91,0-19.35,0-29.38c1.79-0.1,3.54-0.27,5.3-0.27c12.16-0.02,24.32,0.01,36.49,0
		c6.82-0.01,9.99-3.62,9.95-11.25c-0.04-7.7-3.09-11.06-10.1-11.09c-5.83-0.02-11.67-0.2-17.49,0.06
		c-9.47,0.42-16.34-3.85-20.05-12.11c-8.48-18.88-8.54-38.13-0.13-57.05c3.75-8.45,10.59-12.9,20.36-12.3
		c6.14,0.38,12.33,0.17,18.49,0.03c5.96-0.14,8.96-4.09,8.9-11.34c-0.06-7.43-2.94-10.92-9.13-10.93
		C381.88,87.46,367.9,87.48,353.28,87.48z"/>
</g>
</svg>
