<svg id="Layer_1" data-name="Layer 1" xmlns="http://www.w3.org/2000/svg" viewBox="0 0 497.09 679.9"><defs><style>.cls-1{fill:#ff2839;}</style></defs><path class="cls-1" d="M49.9,61.41c2.81,1.47,4.42,2.26,6,3.13,27.14,15.31,54.23,30.7,81.47,45.84,3.87,2.15,5.31,4.59,5.3,9q-.35,115-.39,230-.07,136.72,0,273.47c0,31.66.22,63.33.33,95,0,1.8,0,3.6,0,6.44-2.36-1.15-3.93-1.81-5.41-2.65-27.3-15.37-54.54-30.84-81.92-46-3.94-2.19-5.18-4.74-5.18-9.1q.13-144,0-288Q50,223,49.9,67.53Z" transform="translate(-49.9 -47.83)"/><path class="cls-1" d="M266.74,66.26v6.43c-.15,70.83-.41,141.66-.42,212.48q0,121.5.32,243c.07,47.5.11,95,.36,142.48,0,4.25-1.33,6.47-5,8.53-27.38,15.2-54.61,30.66-81.9,46-1.41.79-2.88,1.49-4.92,2.54-.19-2-.44-3.36-.44-4.76q-.18-123-.31-246-.09-136.23,0-272.47c0-27.33.08-54.66.06-82,0-2.81.21-5,3.12-6.65Q221,91.61,264.25,67.12A21,21,0,0,1,266.74,66.26Z" transform="translate(-49.9 -47.83)"/><path class="cls-1" d="M455.15,724c-.19-2.29-.41-3.71-.41-5.13q-.17-128-.27-255.92-.08-136.47,0-272.92c0-23.66.08-47.32-.1-71,0-3.83,1.07-6.06,4.52-7.87,8.39-4.4,16.55-9.22,25.55-14.3.14,2.23.33,3.76.33,5.3-.16,58.15-.47,116.3-.48,174.45q0,127.22.27,254.43c.08,55.48.08,111,.5,166.44.05,7.16-1.44,11.64-8.41,14.64C469.39,715.24,462.73,719.72,455.15,724Z" transform="translate(-49.9 -47.83)"/><path class="cls-1" d="M517.08,688.93c0-3,0-4.86,0-6.67q-.21-169.74-.41-339.47-.09-129.5,0-259c0-4,1.19-6.41,4.8-8.27,6.81-3.5,13.39-7.45,20.09-11.18,1.39-.78,2.87-1.4,5.21-2.53V68.5q-.22,112.76-.41,225.49,0,127,.23,254,.08,59.25.43,118.49c0,4.2-1.1,6.61-4.94,8.56C533.94,679.15,526.12,683.85,517.08,688.93Z" transform="translate(-49.9 -47.83)"/><path class="cls-1" d="M299.13,47.83c10,5.65,19.06,10.56,27.83,15.92,1.31.8,1.8,3.75,1.82,5.71q.35,43.25.41,86.49,0,256.49-.12,513v6.69c-4.71-2.63-8.59-4.7-12.37-6.92-5.72-3.36-13.47-5.57-16.48-10.59-2.89-4.83-1-12.61-1-19.1.12-67.49.39-135,.41-202.48q0-123.49-.29-247-.11-66.75-.26-133.49C299.12,53.73,299.13,51.41,299.13,47.83Z" transform="translate(-49.9 -47.83)"/><path class="cls-1" d="M424.56,402.26c-12.32-6.91-23.28-13.92-35-19.42-20-9.4-27.54-26.28-29.19-46.53a92.49,92.49,0,0,1,1.83-27.68c2.73-12.05,9.85-14.37,20.57-8.4,7,3.9,13.9,7.92,20.91,11.76,5.73,3.12,8.5,1.74,9.9-4.67,2.08-9.52-2.74-20.4-11.18-25.18-4.92-2.79-9.7-5.93-14.84-8.25-16.33-7.36-23.65-21.25-26.06-37.69-1.49-10.22-.31-31.27-.31-31.27s.53-2.6.94-3.86c3.65-11.27,10.18-14.06,20.66-8.41,10.84,5.85,32.31,17.91,32.31,17.91l9.44,4.58s-.12,20.33-.12,25.37c-2.95-1.47-4.56-2.19-6.09-3.05-12.21-6.85-24.38-13.74-36.6-20.57-5.76-3.22-9-1.52-10,5.09-1.69,11.51,2.25,19.64,12.28,25.33,4.63,2.63,9.16,5.47,13.94,7.81,13.8,6.74,21.37,18.11,24.72,32.65,3,13,4.27,26,.92,39.08-3.15,12.24-10.18,15.15-21.21,9-7-3.91-13.89-7.89-20.87-11.76-5.5-3.05-8.78-1.42-9.86,4.78-1.94,11.13,2.43,20.48,12.22,26,11.74,6.64,23.4,13.45,35.31,19.79,4.13,2.21,5.68,4.87,5.39,9.44C424.29,389.7,424.56,395.35,424.56,402.26Z" transform="translate(-49.9 -47.83)"/><path class="cls-1" d="M362,150.21c-.21,4,0,9.68,0,9.68s5.76,2.1,11,3.42a112.39,112.39,0,0,1,.08-11.48c.59-5.76.91-11.72,2.7-17.15,3.46-10.49,11.66-12.5,20.25-5.62,7.48,6,11.89,14.13,13.85,23.16,1.88,8.7,2.92,26.64,2.92,26.64l.33,8.23a51.55,51.55,0,0,0,7.16,4,43.54,43.54,0,0,1,4,1.93c.14-2.43.3-5.66.3-5.66s-.36-19.38-1.86-28.86c-2.9-18.29-8.76-35.63-21.51-49.71-13.58-15-27.86-12.26-35.2,6.47C363.28,122,361.81,144.94,362,150.21Z" transform="translate(-49.9 -47.83)"/></svg>