<svg id="Layer_1" data-name="Layer 1" xmlns="http://www.w3.org/2000/svg" viewBox="0 0 147.41 147"><defs><style>.cls-1{fill:#ee3440;}</style></defs><path id="Path_2" data-name="Path 2" class="cls-1" d="M-.21,3.34c.84.32,1.32.49,1.78.68,8,3.3,16.08,6.61,24.16,9.87a2,2,0,0,1,1.57,1.94q-.09,24.78-.11,49.55,0,29.46,0,58.92c0,6.82.06,13.64.1,20.47v1.39c-.7-.25-1.17-.4-1.6-.58-8.1-3.31-16.18-6.64-24.29-9.91a1.93,1.93,0,0,1-1.54-2q0-31,0-62.05l-.06-67Z" transform="translate(0.21)"/><path id="Path_3" data-name="Path 3" class="cls-1" d="M64.09,4.54V5.92c0,15.26-.12,30.51-.13,45.77q0,26.16.1,52.33c0,10.23,0,20.46.11,30.69a1.84,1.84,0,0,1-1.49,1.84c-8.11,3.27-16.19,6.6-24.28,9.9-.42.18-.85.32-1.46.55a8.89,8.89,0,0,1-.13-1q0-26.5-.09-53,0-29.34,0-58.68c0-5.89,0-11.78,0-17.66a1.27,1.27,0,0,1,.92-1.43Q50.53,10,63.35,4.72C63.59,4.65,63.84,4.59,64.09,4.54Z" transform="translate(0.21)"/><path id="Path_4" data-name="Path 4" class="cls-1" d="M120,146.09c0-.49-.12-.8-.12-1.1q0-27.36-.08-54.69,0-29.16,0-58.32c0-5.06,0-10.11,0-15.17a1.66,1.66,0,0,1,1.34-1.69c2.49-.94,4.91-2,7.58-3,0,.47.1.8.1,1.13-.05,12.43-.14,24.85-.14,37.28q0,27.18.08,54.37c0,11.86,0,23.72.14,35.57a2.85,2.85,0,0,1-2.49,3.13C124.18,144.21,122.2,145.17,120,146.09Z" transform="translate(0.21)"/><path id="Path_5" data-name="Path 5" class="cls-1" d="M138.32,137.46V136l-.12-72.54q0-27.68,0-55.35a1.74,1.74,0,0,1,1.42-1.77c2-.74,4-1.59,6-2.39.41-.16.85-.29,1.54-.54V4.87L147,53.06q0,27.14.07,54.28,0,12.66.13,25.32a1.76,1.76,0,0,1-1.47,1.83C143.32,135.36,141,136.37,138.32,137.46Z" transform="translate(0.21)"/><path id="Path_6" data-name="Path 6" class="cls-1" d="M73.69,0c3,1.21,5.65,2.26,8.26,3.4.38.17.53.8.54,1.22q.09,9.25.12,18.49,0,54.81,0,109.64v1.43c-1.4-.56-2.55-1-3.67-1.48-1.7-.72-4-1.19-4.88-2.26s-.3-2.7-.3-4.08c0-14.43.11-28.86.12-43.28q0-26.39-.09-52.79,0-14.26-.07-28.53C73.69,1.26,73.69.76,73.69,0Z" transform="translate(0.21)"/><path id="Path_7" data-name="Path 7" class="cls-1" d="M110.89,106.2c-3.66-2-6.9-4.13-10.38-5.76-5.93-2.78-8.17-7.79-8.66-13.8a27.23,27.23,0,0,1,.55-8.2c.8-3.58,2.92-4.27,6.1-2.5,2.07,1.16,4.12,2.35,6.2,3.49,1.7.93,2.52.52,2.93-1.38a7.12,7.12,0,0,0-3.32-7.46c-1.45-.83-2.87-1.76-4.4-2.45-4.84-2.18-7-6.3-7.72-11.17a65.33,65.33,0,0,1-.09-9.28s.15-.77.27-1.14c1.09-3.34,3-4.17,6.13-2.5s9.58,5.32,9.58,5.32l2.8,1.35s0,6,0,7.53c-.87-.44-1.35-.65-1.8-.9-3.62-2-7.23-4.08-10.85-6.1-1.71-1-2.67-.45-3,1.51a6.72,6.72,0,0,0,3.64,7.51c1.38.78,2.72,1.62,4.14,2.31,4.09,2,6.33,5.37,7.33,9.68a24.18,24.18,0,0,1,.27,11.59c-.94,3.63-3,4.49-6.29,2.67-2.08-1.16-4.12-2.34-6.19-3.49-1.63-.9-2.6-.42-2.92,1.42a7,7,0,0,0,3.62,7.71c3.48,2,6.94,4,10.47,5.87a2.6,2.6,0,0,1,1.6,2.8C110.81,102.48,110.89,104.15,110.89,106.2Z" transform="translate(0.21)"/><path id="Path_8" data-name="Path 8" class="cls-1" d="M92.34,31.47c-.07,1.18,0,2.87,0,2.87s1.7.62,3.26,1c0-1.13,0-2.27,0-3.4a24.42,24.42,0,0,1,.8-5.09c1-3.11,3.46-3.7,6-1.66a11.8,11.8,0,0,1,4.11,6.87,72,72,0,0,1,.86,7.9l.1,2.44a15.8,15.8,0,0,0,2.13,1.18,12.81,12.81,0,0,1,1.18.57c0-.72.09-1.67.09-1.67a85.67,85.67,0,0,0-.55-8.56c-.86-5.42-2.6-10.57-6.38-14.74-4-4.45-8.26-3.64-10.43,1.92C92.72,23.1,92.28,29.9,92.34,31.47Z" transform="translate(0.21)"/></svg>