<svg id="Capa_1" data-name="Capa 1" xmlns="http://www.w3.org/2000/svg" viewBox="0 0 256.13 490.78"><defs><style>.cls-1{fill:#f44336;}.cls-2{fill:#ff2839;}</style></defs><path class="cls-1" d="M3.22,487.66a10.67,10.67,0,0,1,0-15.09L230.36,245.45,3.25,18.34c-.09-.09-.18-.17-.26-.26A10.66,10.66,0,0,1,18.33,3.26L253,237.91A10.66,10.66,0,0,1,253,253L18.33,487.67a10.69,10.69,0,0,1-15.11,0Z" transform="translate(0 -0.01)"/><path class="cls-2" d="M3.22,487.66a10.67,10.67,0,0,1,0-15.09L230.36,245.45,3.25,18.34c-.09-.09-.18-.17-.26-.26A10.66,10.66,0,0,1,18.33,3.26L253,237.91A10.66,10.66,0,0,1,253,253L18.33,487.67a10.69,10.69,0,0,1-15.11,0Z" transform="translate(0 -0.01)"/></svg>